HIERARCHY
ROOT Hips
{
	OFFSET 0.00000 0.00000 0.00000
	CHANNELS 6 Xposition Yposition Zposition Zrotation Yrotation Xrotation 
	JOINT LHipJoint
	{
		OFFSET 0 0 0
		CHANNELS 3 Zrotation Yrotation Xrotation
		JOINT LeftUpLeg
		{
			OFFSET 1.38691 -1.89057 0.78360
			CHANNELS 3 Zrotation Yrotation Xrotation
			JOINT LeftLeg
			{
				OFFSET 2.59731 -7.13606 0.00000
				CHANNELS 3 Zrotation Yrotation Xrotation
				JOINT LeftFoot
				{
					OFFSET 2.70078 -7.42033 0.00000
					CHANNELS 3 Zrotation Yrotation Xrotation
					JOINT LeftToeBase
					{
						OFFSET 0.16751 -0.46024 2.68862
						CHANNELS 3 Zrotation Yrotation Xrotation
						End Site
						{
							OFFSET 0.00000 -0.00000 1.37057
						}
					}
				}
			}
		}
	}
	JOINT RHipJoint
	{
		OFFSET 0 0 0
		CHANNELS 3 Zrotation Yrotation Xrotation
		JOINT RightUpLeg
		{
			OFFSET -1.38190 -1.89056 0.78359
			CHANNELS 3 Zrotation Yrotation Xrotation
			JOINT RightLeg
			{
				OFFSET -2.57785 -7.08258 0.00000
				CHANNELS 3 Zrotation Yrotation Xrotation
				JOINT RightFoot
				{
					OFFSET -2.77908 -7.63547 0.00000
					CHANNELS 3 Zrotation Yrotation Xrotation
					JOINT RightToeBase
					{
						OFFSET -0.17921 -0.49237 2.62360
						CHANNELS 3 Zrotation Yrotation Xrotation
						End Site
						{
							OFFSET -0.00000 -0.00000 1.34085
						}
					}
				}
			}
		}
	}
	JOINT LowerBack
	{
		OFFSET 0 0 0
		CHANNELS 3 Zrotation Yrotation Xrotation
		JOINT Spine
		{
			OFFSET -0.10749 2.04110 -0.22549
			CHANNELS 3 Zrotation Yrotation Xrotation
			JOINT Spine1
			{
				OFFSET 0.01213 2.05840 0.00691
				CHANNELS 3 Zrotation Yrotation Xrotation
				JOINT Neck
				{
					OFFSET 0 0 0
					CHANNELS 3 Zrotation Yrotation Xrotation
					JOINT Neck1
					{
						OFFSET 0.06585 1.81215 0.35449
						CHANNELS 3 Zrotation Yrotation Xrotation
						JOINT Head
						{
							OFFSET -0.04315 1.87555 -0.27307
							CHANNELS 3 Zrotation Yrotation Xrotation
							End Site
							{
								OFFSET -0.01775 1.89740 -0.13294
							}
						}
					}
				}
				JOINT LeftShoulder
				{
					OFFSET 0 0 0
					CHANNELS 3 Zrotation Yrotation Xrotation
					JOINT LeftArm
					{
						OFFSET 2.98012 1.63606 0.28888
						CHANNELS 3 Zrotation Yrotation Xrotation
						JOINT LeftForeArm
						{
							OFFSET 5.59864 -0.00000 -0.00000
							CHANNELS 3 Zrotation Yrotation Xrotation
							JOINT LeftHand
							{
								OFFSET 3.59542 -0.00000 -0.00000
								CHANNELS 3 Zrotation Yrotation Xrotation
								JOINT LeftFingerBase
								{
									OFFSET 0 0 0
									CHANNELS 3 Zrotation Yrotation Xrotation
									JOINT LeftHandIndex1
									{
										OFFSET 0.57201 -0.00000 -0.00000
										CHANNELS 3 Zrotation Yrotation Xrotation
										End Site
										{
											OFFSET 0.46117 -0.00000 -0.00000
										}
									}
								}
								JOINT LThumb
								{
									OFFSET 0 0 0
									CHANNELS 3 Zrotation Yrotation Xrotation
									End Site
									{
										OFFSET 0.46821 -0.00000 0.46821
									}
								}
							}
						}
					}
				}
				JOINT RightShoulder
				{
					OFFSET 0 0 0
					CHANNELS 3 Zrotation Yrotation Xrotation
					JOINT RightArm
					{
						OFFSET -3.08694 1.53706 0.36335
						CHANNELS 3 Zrotation Yrotation Xrotation
						JOINT RightForeArm
						{
							OFFSET -5.80940 -0.00000 -0.00000
							CHANNELS 3 Zrotation Yrotation Xrotation
							JOINT RightHand
							{
								OFFSET -3.66953 -0.00000 -0.00000
								CHANNELS 3 Zrotation Yrotation Xrotation
								JOINT RightFingerBase
								{
									OFFSET 0 0 0
									CHANNELS 3 Zrotation Yrotation Xrotation
									JOINT RightHandIndex1
									{
										OFFSET -0.57843 -0.00000 -0.00000
										CHANNELS 3 Zrotation Yrotation Xrotation
										End Site
										{
											OFFSET -0.46635 -0.00000 -0.00000
										}
									}
								}
								JOINT RThumb
								{
									OFFSET 0 0 0
									CHANNELS 3 Zrotation Yrotation Xrotation
									End Site
									{
										OFFSET -0.47347 -0.00000 0.47347
									}
								}
							}
						}
					}
				}
			}
		}
	}
}
MOTION
Frames: 7
Frame Time: 0.0909091
0.00 0.00 0.00 0 0 0 0 0 0 -21 0 0 0 0 0 0 0 0 0 0 0 0 0 0 21 0 0 0 0 0 0 0 0 0 0 0 0 0 0 0 0 0 0 0 0 0 0 -16 0 0 21 0 0 11 0 0 0 -8 0 0 0 0 0 0 0 0 0 0 0 0 0 0 0 0 0 0 0 0 8 0 0 0 0 0 0 0 0 0 0 0 0 0 0 0 0 0
0.00 0.00 0.00 -4.4775 35.4195 -2.6540 0.0000 0.0000 0.0000 -11.9737 3.7327 -12.0714 9.2098 16.9408 56.8127 3.8475 -1.5170 -36.8635 0.0220 -0.9583 -2.6340 0.0000 0.0000 0.0000 24.4475 8.9072 -15.3067 -3.8435 -11.9492 35.5527 -1.5282 10.8647 -22.2970 -1.1110 6.6964 -18.8191 -4.4810 0.4977 13.5919 0.3051 -0.0152 -0.0698 2.8643 0.1761 -7.7210 -1.2230 -4.4989 -18.2604 2.8398 -7.0950 35.4727 0.1372 -2.6098 15.7791 -0.0000 0.0000 0.0000 -78.8949 18.4522 37.5983 43.8162 -50.1752 -21.3257 -0.0000 0.0000 -20.7620 23.1779 2.3672 1.0131 -7.1250 0.0000 -0.0000 -2.7606 32.5463 0.8428 -0.0000 0.0000 0.0000 86.0628 -3.1994 51.5854 -33.9639 44.0580 -14.0879 0.0000 -0.0000 -10.6157 -42.7987 5.0233 -4.6353 7.1250 -0.0000 -0.0000 -11.8383 -23.1777 -6.3556
0.00 0.00 0.00 -3.7702 33.4101 -0.1734 0.0000 0.0000 0.0000 -9.8138 -4.5279 -14.5494 10.0274 17.4253 59.5801 1.2619 -3.8979 -20.3062 0.1677 -2.6382 -7.2732 0.0000 0.0000 0.0000 23.7221 8.9247 -16.4496 -3.6371 -11.6612 34.5437 -1.2562 11.5676 -20.4264 -1.3506 7.3572 -20.7779 -3.1434 0.5621 13.1665 0.0463 0.2743 -0.1688 1.7728 0.2580 -7.5995 -1.6848 -4.6013 -18.7019 3.1882 -7.1926 34.4810 0.3322 -2.6909 15.4449 -0.0000 0.0000 0.0000 -77.4573 18.7898 39.1145 40.1482 -48.1575 -18.5496 -0.0000 0.0000 -22.1570 23.4061 1.8411 0.7967 -7.1250 0.0000 -0.0000 -2.5532 31.9792 0.8142 -0.0000 0.0000 0.0000 86.6940 -3.0416 48.9858 -32.3390 42.8158 -12.9707 0.0000 -0.0000 -10.3203 -43.4375 4.6703 -4.4086 7.1250 -0.0000 -0.0000 -12.3593 -23.5819 -6.5303
0.00 0.00 0.00 -1.9008 32.1699 3.5716 0.0000 0.0000 0.0000 -8.4908 -14.9564 -11.8694 5.8765 14.3076 44.4842 0.3689 -8.5673 -11.5578 0.0312 1.1406 3.1357 0.0000 0.0000 0.0000 20.2779 12.7124 -23.1779 -5.1957 -13.6009 41.6615 -1.4263 12.6044 -21.8362 -1.4502 7.6123 -21.5425 -3.5006 0.5474 14.7428 0.2096 0.1600 0.1925 2.1730 0.2254 -8.0961 -1.6656 -4.6835 -19.4082 2.8021 -7.1033 32.3319 0.1692 -2.7632 14.5756 0.0000 -0.0000 0.0000 -77.4869 15.9765 38.7752 37.2585 -46.3591 -16.4268 -0.0000 0.0000 -20.0063 21.8221 -1.1735 -0.4699 -7.1250 0.0000 -0.0000 -3.6952 28.7079 1.4688 0.0000 -0.0000 0.0000 86.4338 -1.8650 44.5491 -30.3431 41.1857 -11.6349 0.0000 -0.0000 -8.4278 -45.4724 3.6941 -3.7475 7.1250 -0.0000 -0.0000 -14.0108 -24.7088 -7.0752
0.00 0.00 0.00 1.5452 29.9533 9.0664 0.0000 0.0000 0.0000 -9.1989 -19.5384 -9.8116 2.4493 9.7451 28.1551 0.1141 -7.5137 -7.4994 0.1703 2.6584 7.3291 0.0000 0.0000 0.0000 11.6649 15.6732 -38.6758 -9.1964 -16.9324 56.7668 -0.9363 17.3497 -19.7630 -1.3830 7.4411 -21.0290 -5.1512 0.1448 17.0215 -0.1723 -0.7741 1.2513 2.9223 -0.1790 -8.1453 -0.5031 -4.0951 -21.3640 2.5964 -6.4836 28.8298 -0.0281 -2.4681 13.3986 -0.0000 0.0000 0.0000 -76.4956 9.2393 37.9793 36.6170 -45.9328 -15.9642 -0.0000 0.0000 -26.2468 27.8377 -1.5826 -0.8356 -7.1250 0.0000 -0.0000 0.9772 28.1897 -0.3997 -0.0000 0.0000 0.0000 84.8529 0.8844 42.0423 -30.7588 41.5350 -11.9096 0.0000 -0.0000 -11.2731 -46.5614 3.9909 -4.2036 7.1250 -0.0000 -0.0000 -14.7274 -24.1896 -7.6445
0.00 0.00 0.00 3.6936 23.5095 12.2225 0.0000 0.0000 0.0000 -11.3380 -14.9196 -6.3873 3.6989 11.7486 34.8484 -0.8836 -24.0620 -10.1094 0.3744 3.9302 10.8805 0.0000 0.0000 0.0000 1.2656 19.6707 -55.6672 -13.7937 -19.0503 71.5734 0.1539 21.1946 -13.6948 -1.0666 6.5657 -18.4348 -6.3872 0.5432 17.7460 -0.5750 -0.5470 1.8146 3.1399 -0.0502 -7.9443 -0.6829 -3.3230 -21.6786 1.8753 -5.0095 26.5507 -0.0125 -2.0009 12.4803 -0.0000 -0.0000 0.0000 -70.6195 -3.5018 42.8806 37.5725 -46.5641 -16.6544 -0.0000 0.0000 -35.0420 29.5069 1.7083 0.9665 -7.1250 0.0000 -0.0000 2.3555 31.9368 -0.7535 -0.0000 -0.0000 0.0000 80.2149 0.4511 43.3358 -37.1966 46.3184 -16.3820 0.0000 -0.0000 -15.8726 -47.5815 4.3479 -4.7431 7.1250 -0.0000 -0.0000 -15.3695 -23.5735 -8.2295
0.00 0.00 0.00 4.1676 22.1819 15.5215 0.0000 0.0000 0.0000 -7.7186 -8.8918 10.2973 1.6785 8.1615 23.2057 -1.7740 -28.1528 -7.3577 0.4505 4.3063 11.9400 0.0000 0.0000 0.0000 -6.8986 17.2989 -74.3095 -18.1652 -19.9191 84.6285 1.0947 23.0143 -6.7134 -0.7513 5.5361 -15.4442 -6.2005 -0.4082 14.3903 -0.1316 -1.5427 0.7482 3.6797 -0.5427 -7.1287 -2.1072 -3.3804 -22.7881 0.4566 -4.1423 28.6015 -0.2059 -1.9377 13.5315 -0.0000 0.0000 0.0000 -49.2344 -29.0357 46.9254 70.2226 -58.4692 -42.9603 -0.0000 0.0000 -34.6107 28.2225 3.0564 1.6391 -7.1250 0.0000 -0.0000 1.3208 33.4455 -0.3742 -0.0000 0.0000 0.0000 60.0519 -3.5586 51.4987 -51.6832 53.6522 -27.5242 0.0000 -0.0000 -8.9151 -45.3629 7.8896 -7.9142 7.1250 -0.0000 -0.0000 -13.0720 -18.9723 -8.3308
